<svg xmlns="http://www.w3.org/2000/svg" xmlns:xlink="http://www.w3.org/1999/xlink" width="1012.765" height="675.012" viewBox="0 0 1012.765 675.012">
  <defs>
    <linearGradient id="linear-gradient" x1="-127.517" y1="-55.308" x2="-126.598" y2="-53.916" gradientUnits="objectBoundingBox">
      <stop offset="0.01"/>
      <stop offset="0.08" stop-opacity="0.69"/>
      <stop offset="0.21" stop-opacity="0.322"/>
      <stop offset="1" stop-opacity="0"/>
    </linearGradient>
    <linearGradient id="linear-gradient-2" x1="0.739" y1="-1.187" x2="0.184" y2="2.804" xlink:href="#linear-gradient"/>
    <linearGradient id="linear-gradient-3" x1="-411.125" y1="-37.896" x2="-417.736" y2="-37.793" xlink:href="#linear-gradient"/>
    <linearGradient id="linear-gradient-4" x1="0.488" y1="-0.524" x2="0.519" y2="2.217" xlink:href="#linear-gradient"/>
    <linearGradient id="linear-gradient-5" x1="-0.14" y1="0.262" x2="1.298" y2="0.715" xlink:href="#linear-gradient"/>
    <linearGradient id="linear-gradient-6" x1="-0.04" y1="0.372" x2="3.288" y2="1.164" xlink:href="#linear-gradient"/>
    <linearGradient id="linear-gradient-7" x1="1.774" y1="-2.126" x2="-1.275" y2="5.095" xlink:href="#linear-gradient"/>
    <linearGradient id="linear-gradient-8" x1="2.494" y1="-0.417" x2="-2.41" y2="2.135" xlink:href="#linear-gradient"/>
    <linearGradient id="linear-gradient-9" x1="0.879" y1="1.883" x2="-0.046" y2="-1.81" xlink:href="#linear-gradient"/>
    <linearGradient id="linear-gradient-10" x1="0.447" y1="-1.128" x2="0.587" y2="3.434" xlink:href="#linear-gradient"/>
  </defs>
  <g id="Team_work_Monochromatic" data-name="Team work_Monochromatic" transform="translate(0)">
    <path id="Path_275" data-name="Path 275" d="M1057.038,248.092c6.66,0,15.87,3.371,14.225,9.826L767.315,282.585c-35.768,2.919-71.578,5.8-107.51,5.8-54.269,0-108.291-6.66-162.437-9.785-50.98-2.919-102.042-2.713-153.063-2.467-47.239.247-105.331,8.757-151.213-3.618-6.907-1.85-13.855-7.4-13.4-14.513.205-3.289,1.932-6.7.658-9.744a8.221,8.221,0,0,0-3.371-3.536c-9.415-5.8-21.42-1.275-32.274,1.11a77.127,77.127,0,0,1-51.1-6.5,15.993,15.993,0,0,1-7.236-6,6.413,6.413,0,0,1,1.563-8.469,9.127,9.127,0,0,1,4.111-.946l93.039-7.236a21.46,21.46,0,0,1,10.237.9c3.659,1.6,3.453,5.879,6.413,7.647,4.81,2.837,15.746,1.316,21.255,1.644,14.1.781,28.2,1.562,42.346,2.261q42.223,2.015,84.61,3.412c57.558,1.932,115.4,3.084,173.085,4.111,114.088,1.85,228.218,2.837,342.265,7.236C929.218,246.283,993.107,246.694,1057.038,248.092Z" transform="translate(-58.691 386.63)" fill="#fdd2d5"/>
    <path id="Path_276" data-name="Path 276" d="M132.478,71.04a23.393,23.393,0,0,1,16.445.411,25.737,25.737,0,0,1,15.129,14.39,3.042,3.042,0,0,0,3.618,2.8,24.092,24.092,0,0,1,16.2,6.208c5.18,4.728,5.18,10.525,5.879,17.309a6.084,6.084,0,0,1,5.468,0,16.979,16.979,0,0,1,4.564,3.289,18.83,18.83,0,0,1,5.3,6.784c1.645,4.481-.206,9.415-.288,14.184a1.48,1.48,0,0,0,.37,1.192,1.356,1.356,0,0,0,1.069,0c1.274-.247,2.426-.9,3.7-1.028a6.414,6.414,0,0,1,6.249,5.262,20.8,20.8,0,0,1-.452,8.839,15.458,15.458,0,0,0,.247,8.757,18.706,18.706,0,0,0,3.824,4.975,26.682,26.682,0,0,1,8.223,15.746,12.539,12.539,0,0,1-2.22,8.223,8.469,8.469,0,0,1-7.606,3.453c-6.825-.9-9.209-10.484-15.705-12.745s-13.773-9.908-17.966-15.952c-3.371-4.851-6.66-10.484-12.334-12.334a19.817,19.817,0,0,1-5.345-1.973,10.279,10.279,0,0,1-2.713-3.207,41.772,41.772,0,0,1-5.386-11.265c-2.056-7.894,0-16.774-3.824-24.051a16.733,16.733,0,0,0-10.73-8.469c-1.932-.493-4.111-.617-5.879-1.151a20.886,20.886,0,0,1-6.249-3,19.57,19.57,0,0,1-9.538-13.691C122.158,78.194,127.38,73.013,132.478,71.04Z" transform="translate(632.142 -69.745)" fill="#ff681c"/>
    <path id="Path_277" data-name="Path 277" d="M149.381,73.729A9.25,9.25,0,0,0,143.667,84.3a13.9,13.9,0,0,0,3.083,4.646l7.441,8.223,3.083-11.429a9.25,9.25,0,0,1,3-5.55,6.989,6.989,0,0,1,6.948,0,64.889,64.889,0,0,1,6.044,4.111c.535.329,1.274.7,1.85.37s.658-1.521.37-2.343C171.952,72.537,158.426,69.824,149.381,73.729Z" transform="translate(598.423 -62.691)" fill="#ff681c"/>
    <path id="Path_278" data-name="Path 278" d="M167.814,157.043a21.009,21.009,0,0,1-3.7,10.731c-3.33,4.111-8.88,6.167-13.485,9.168a3.618,3.618,0,0,0-1.891,2.426,2.549,2.549,0,0,0,1.686,2.261,7.319,7.319,0,0,0,3,.206,118.17,118.17,0,0,1,14.184-1.357c2.385,0,5.139.247,6.66-1.6a7.2,7.2,0,0,0,.946-5.262,71.455,71.455,0,0,1,1.645-20.269,12.991,12.991,0,0,0,.534-5.016,4.564,4.564,0,0,0-7.441-2.59C167.238,148.081,168.143,153.878,167.814,157.043Z" transform="translate(574.934 163.288)" fill="#fcbdba"/>
    <path id="Path_279" data-name="Path 279" d="M143.98,163.836a21.379,21.379,0,0,1-1.4,11.265c-2.426,4.892-7.483,7.811-11.388,11.676a3.453,3.453,0,0,0-1.357,2.754,2.467,2.467,0,0,0,2.1,1.85,6.619,6.619,0,0,0,2.96-.37,124.315,124.315,0,0,1,13.65-4.111c2.344-.411,5.1-.822,6.208-2.878a7.318,7.318,0,0,0,0-5.345,71.412,71.412,0,0,1-2.467-20.228,12.911,12.911,0,0,0-.493-5.016,4.564,4.564,0,0,0-7.812-1.028C141.637,155.161,143.692,160.67,143.98,163.836Z" transform="translate(674.827 181.944)" fill="#fcbdba"/>
    <path id="Path_280" data-name="Path 280" d="M223.9,109.78S184.677,168,158.981,185.386a82.762,82.762,0,0,1-.37,17.473c-1.316,9.415-5.879,17.679-7.359,26.929l-4.934,31.122c-.206,1.4-.617,3.083-1.973,3.577a4.111,4.111,0,0,1-2.508,0l-10.854-2.96a500.458,500.458,0,0,0-1.192-56.078,123.632,123.632,0,0,1-.576-22.735c1.809-16.445,15.294-31.122,24.668-44.32,5.632-7.976,11.676-19.9,19.57-25.942,6.578-5.016,15.87-2.631,24.133-1.809a56.078,56.078,0,0,0,18.5-1.316A8.222,8.222,0,0,1,223.9,109.78Z" transform="translate(609.873 50.992)" fill="#473f47"/>
    <path id="Path_281" data-name="Path 281" d="M189.816,108.965s-15.253,68.535-32.89,94.107a86.955,86.955,0,0,1,6.044,16.445,81.039,81.039,0,0,1,1.686,14.1l3.536,57.229a45.758,45.758,0,0,1-16.157-2.056L131.97,238.347a69.891,69.891,0,0,1-6.66-25.613c0-17.185,16.445-79.924,18.378-83.089,4.317-7.113,13.814-8.223,21.79-10.525a55.007,55.007,0,0,0,16.733-7.976C184.718,109.582,186.979,108.061,189.816,108.965Z" transform="translate(658.88 51.437)" fill="#473f47"/>
    <path id="Path_282" data-name="Path 282" d="M201.034,105.967a49.006,49.006,0,0,1-26.765,4.111,18.953,18.953,0,0,0-8.223-.411c1.192,1.686,2.343,4.111.658,5.55a3.578,3.578,0,0,1-1.727.576,14.267,14.267,0,0,1-6.578-.7,6.743,6.743,0,0,0-3.207-.7,3.824,3.824,0,0,0-2.8,4.6,8.223,8.223,0,0,0,3.618,4.687,19.076,19.076,0,0,0,19.241,1.069c1.727-.946,3.33-2.138,5.1-3.083a41.114,41.114,0,0,1,10.689-3.207,219.049,219.049,0,0,0,31.78-9.127,11.882,11.882,0,0,0,7.524-5.591c2.1-5.18-1.768-13.855-7.935-10.484C215.259,97.415,208.8,102.76,201.034,105.967Z" transform="translate(506.851 1.07)" fill="#fcbdba"/>
    <path id="Path_283" data-name="Path 283" d="M182.007,99.983a114.787,114.787,0,0,1-40.126,16.445,1.355,1.355,0,0,0-1.233,2.22,73.717,73.717,0,0,0,10.977,16.24,5.1,5.1,0,0,0,1.768,1.48,5.263,5.263,0,0,0,4.111-.493q13.855-5.55,27.134-12.334a58.463,58.463,0,0,0,20.556-15.088,20.556,20.556,0,0,0,4.769-11.923c0-4.851-4.44-13.567-10.566-11.183-2.755,1.069-5.18,4.481-7.277,6.414a106.116,106.116,0,0,1-10.114,8.223Z" transform="translate(576.94 -22.464)" fill="#ce131c"/>
    <path id="Path_284" data-name="Path 284" d="M182.007,99.983a114.787,114.787,0,0,1-40.126,16.445,1.355,1.355,0,0,0-1.233,2.22,73.717,73.717,0,0,0,10.977,16.24,5.1,5.1,0,0,0,1.768,1.48,5.263,5.263,0,0,0,4.111-.493q13.855-5.55,27.134-12.334a58.463,58.463,0,0,0,20.556-15.088,20.556,20.556,0,0,0,4.769-11.923c0-4.851-4.44-13.567-10.566-11.183-2.755,1.069-5.18,4.481-7.277,6.414a106.116,106.116,0,0,1-10.114,8.223Z" transform="translate(576.94 -22.464)" fill="url(#linear-gradient)"/>
    <path id="Path_285" data-name="Path 285" d="M142.919,103.7a17.6,17.6,0,0,0,16.445,28.327s19.446.452,15.047,18.789l-37,47.115,47.115,37c18.336,4.4,18.789-15.047,18.789-15.047a17.637,17.637,0,1,1,19.076,15.047c-16.733,5.509-10.237,21.79-10.237,21.79l47.115,37,95.752-121.571-46.663-37c-18.336-4.4-18.789,15.047-18.789,15.047a17.6,17.6,0,1,1-31.246-8.223,17.843,17.843,0,0,1,12.334-6.66c16.569-5.468,10.073-21.913,10.073-21.913L233.162,75.87l-37,47.157s-16.445,6.5-21.79-10.237a17.637,17.637,0,0,0-31.451-9.086Z" transform="translate(443.929 -50.688)" fill="#ce131c"/>
    <path id="Path_286" data-name="Path 286" d="M142.919,103.7a17.6,17.6,0,0,0,16.445,28.327s19.446.452,15.047,18.789l-37,47.115,47.115,37c18.336,4.4,18.789-15.047,18.789-15.047a17.637,17.637,0,1,1,19.076,15.047c-16.733,5.509-10.237,21.79-10.237,21.79l47.115,37,95.752-121.571-46.663-37c-18.336-4.4-18.789,15.047-18.789,15.047a17.6,17.6,0,1,1-31.246-8.223,17.843,17.843,0,0,1,12.334-6.66c16.569-5.468,10.073-21.913,10.073-21.913L233.162,75.87l-37,47.157s-16.445,6.5-21.79-10.237a17.637,17.637,0,0,0-31.451-9.086Z" transform="translate(443.929 -50.688)" fill="#b00005"/>
    <path id="Path_287" data-name="Path 287" d="M195.784,128.259c-10.073,8.223-20.556,17.062-32.89,19.2a18.254,18.254,0,0,1-13.937-2.508,4.4,4.4,0,0,1-2.138-4.111c.452-2.014,2.919-2.713,4.934-3.083a68.042,68.042,0,0,0,26.559-9.538,76.878,76.878,0,0,0,8.51-6.989l20.022-17.843a2.59,2.59,0,0,1,2.015-.946c.822,0,1.316.946,1.686,1.686a35.685,35.685,0,0,1,2.8,7.935c.617,3,0,3.412-2.59,5.139Q202.979,122.462,195.784,128.259Z" transform="translate(546.758 31.979)" fill="url(#linear-gradient-2)"/>
    <path id="Path_288" data-name="Path 288" d="M190.133,120.053a48.883,48.883,0,0,1-24.668,11.512,18.665,18.665,0,0,0-7.853,1.85c1.686,1.274,3.495,3.454,2.22,5.139a3.577,3.577,0,0,1-1.521,1.028,14.6,14.6,0,0,1-6.5,1.151,7.36,7.36,0,0,0-3.289.247,3.782,3.782,0,0,0-1.357,5.18,7.853,7.853,0,0,0,4.769,3.495,18.912,18.912,0,0,0,18.747-4.358c1.439-1.4,2.631-3,4.111-4.358a40.17,40.17,0,0,1,9.374-6.044,219.376,219.376,0,0,0,27.957-17.679,11.922,11.922,0,0,0,5.674-7.441c.576-5.591-5.55-12.868-10.566-7.853C201.4,107.842,196.67,114.626,190.133,120.053Z" transform="translate(543.117 25.137)" fill="#fcbdba"/>
    <path id="Path_289" data-name="Path 289" d="M206.392,199.513a7.564,7.564,0,0,1-2.713,2.056,99.864,99.864,0,0,1-12.868,6.167,51.6,51.6,0,0,1-35.563-.288A47.446,47.446,0,0,1,142.5,200.5a12.333,12.333,0,0,1-3.618-3.823,13.9,13.9,0,0,1-.987-7.894c1.028-13.855,2.549-28.162,0-41.606a57.554,57.554,0,0,0-4.111-13.4,103.929,103.929,0,0,1-8.223-18.377,27.381,27.381,0,0,1,5.715-22.365c5.345-6.825,15.13-12.868,23.763-9.785a54.392,54.392,0,0,1,24.873,18.994,124.078,124.078,0,0,1,16.034,31.451c1.645,4.4,3.248,8.8,4.522,13.321a193.525,193.525,0,0,1,5.262,33.343c.452,4.687.863,9.374,1.357,14.061A7.36,7.36,0,0,1,206.392,199.513Z" transform="translate(642.304 -30.313)" fill="#ce131c"/>
    <path id="Path_290" data-name="Path 290" d="M154.331,169.192a47.444,47.444,0,0,1-12.745-6.948,12.333,12.333,0,0,1-3.618-3.823,13.9,13.9,0,0,1-.987-7.894c1.028-13.855,2.549-28.162,0-41.606,1.645-1.645,3.495-3.125,5.3-4.6,4.111-3.371,10.032-10.032,15.993-9.579-1.439,6.29-2.59,12.7-3.454,19.117s-.534,13.074-1.562,19.405a117.089,117.089,0,0,0,.781,33.671A10.856,10.856,0,0,1,154.331,169.192Z" transform="translate(643.221 7.943)" opacity="0.397" fill="url(#linear-gradient-3)"/>
    <path id="Path_291" data-name="Path 291" d="M136.122,135.2a2.713,2.713,0,0,0-1.357,1.6,2.673,2.673,0,0,0,.7,1.85,52.09,52.09,0,0,0,13.814,13.362,3.5,3.5,0,0,0,1.809.74,3.412,3.412,0,0,0,2.014-.946c8.223-6.29,16.445-12.334,24.462-18.912a61.013,61.013,0,0,0,13.567-13.238,57.066,57.066,0,0,0,6.331-14.759c4.892-15.417-9.908-22.119-19.816-10.813C164.572,109.053,152.65,123.648,136.122,135.2Z" transform="translate(611.395 -11.595)" fill="#ce131c"/>
    <path id="Path_292" data-name="Path 292" d="M187.811,155.857a3.125,3.125,0,0,0-.411-3.125c-.9-.863-2.385-.452-3.536,0a42.754,42.754,0,0,1-7.935,2.919,11.677,11.677,0,0,1-8.223-.863c-1.4-.822-2.755-2.056-4.358-1.932a5.632,5.632,0,0,0-2.261.863,27.709,27.709,0,0,1-7.853,2.672,7.4,7.4,0,0,0-3.248,1.069,1.6,1.6,0,0,0-.617.863c0,.822.781,1.439,1.562,1.727,8.551,3.33,18.131,2.1,27.258,1.11a11.056,11.056,0,0,1,3.084,0c1.521.288,3.371,1.069,4.646,0a10.73,10.73,0,0,0,1.891-5.3Z" transform="translate(561.72 186.881)" fill="#473f47"/>
    <path id="Path_293" data-name="Path 293" d="M167.439,161.35a3.289,3.289,0,0,0-.781-3.042c-1.028-.74-2.426,0-3.536.452a48.4,48.4,0,0,1-7.524,3.906,11.8,11.8,0,0,1-8.223,0c-1.48-.617-2.96-1.686-4.564-1.357a6.248,6.248,0,0,0-2.138,1.11,26.681,26.681,0,0,1-7.441,3.824,7.316,7.316,0,0,0-3.125,1.48,1.274,1.274,0,0,0-.452.9c0,.822.9,1.316,1.727,1.521,8.921,2.261,18.254,0,27.176-2.261a11.426,11.426,0,0,1,3.083-.452c1.521,0,3.454.658,4.6-.74a11.224,11.224,0,0,0,1.192-5.345Z" transform="translate(663.291 204.822)" fill="#473f47"/>
    <path id="Path_294" data-name="Path 294" d="M141.647,102.467c.7,2.261,1.4,4.522,1.973,6.825a70.511,70.511,0,0,0,2.713,10.114,12.087,12.087,0,0,0,7.071,7.236,6.784,6.784,0,0,0,8.428-4.111c1.973.452,2.672,2.878,2.631,4.934a8.8,8.8,0,0,0,1.069,5.838c1.85,2.179,5.468,1.274,7.894-.288a22.365,22.365,0,0,0,9.415-23.023c-2.015-9.168-1.932-20.145-7.154-28.08a24.667,24.667,0,0,0-7.03-6.7,18.129,18.129,0,0,0-8.223-3.33,22.653,22.653,0,0,0-6.208.493c-8.716,1.48-16.116,2.755-16.157,12.745a56.2,56.2,0,0,0,3.577,17.35Z" transform="translate(612.942 -63.225)" fill="#fcbdba"/>
    <path id="Path_295" data-name="Path 295" d="M144.964,89.247c1.357,0,2.919-.329,4.111.493s1.275,2.672,2.015,4.111c1.439,2.672,5.1,3.042,7.853,4.44a10.278,10.278,0,0,1,5.427,9.25,6.249,6.249,0,0,1,.863-3.453,2.179,2.179,0,0,1,3.124-.534,2.631,2.631,0,0,1,.617,1.562,6.907,6.907,0,0,1-2.713,6.167,10.278,10.278,0,0,0,9.415,5.8,5.263,5.263,0,0,0,3.412-1.151,5.509,5.509,0,0,0,1.316-2.22c2.343-6.578-1.233-13.608-2.1-20.556a28.328,28.328,0,0,0-1.192-7.236,15.87,15.87,0,0,0-3.083-4.481,31.327,31.327,0,0,0-14.636-9.826c-5.509-1.521-16.445-.74-20.762,3.618a8.675,8.675,0,0,0,6.331,14.019Z" transform="translate(620.355 -66.162)" fill="#ff681c"/>
    <path id="Path_296" data-name="Path 296" d="M343.987,429.97V353.048c-10.114-21.954-30.054-6.989-30.054-6.989a22.571,22.571,0,1,1,0-31.164c18.83,12.334,30.054-6.989,30.054-6.989V230.942H267.064s-19.488-11.224-6.989-30.054a22.571,22.571,0,1,0-31.164,0s14.965,19.94-6.989,30.054H145V429.97Z" transform="translate(423.758 217.25)" fill="url(#linear-gradient-4)"/>
    <path id="Path_297" data-name="Path 297" d="M246.675,513.529h13.9L118.32,137.921a6.5,6.5,0,0,0-6.044-4.111h0a6.5,6.5,0,0,0-6.085,8.8Z" transform="translate(668.46 129.58)" fill="#ce131c"/>
    <path id="Path_298" data-name="Path 298" d="M234.873,489.941h13.9L104.956,110.14H91.06Z" transform="translate(596.925 153.168)" fill="#ce131c"/>
    <path id="Path_299" data-name="Path 299" d="M106.4,131.975h73.51l-3.7-9.785H102.7Z" transform="translate(617.929 190.659)" fill="#ce131c"/>
    <path id="Path_300" data-name="Path 300" d="M100.941,146.485h73.51L170.71,136.7H97.2Z" transform="translate(646 235.803)" fill="#ce131c"/>
    <path id="Path_301" data-name="Path 301" d="M95.41,161.026h73.51l-3.7-9.826H91.71Z" transform="translate(674.102 280.917)" fill="#ce131c"/>
    <path id="Path_302" data-name="Path 302" d="M89.92,175.495h73.51l-3.7-9.785H86.22Z" transform="translate(702.163 326.062)" fill="#ce131c"/>
    <path id="Path_303" data-name="Path 303" d="M84.42,190h73.51l-3.741-9.785H80.72Z" transform="translate(730.275 371.207)" fill="#ce131c"/>
    <path id="Path_304" data-name="Path 304" d="M178.7,192.734l18.912,49.87h-69.6l3.7,9.785h69.481l18.871,49.829h-69.44l3.7,9.785h69.563l18.871,49.87H173.236l3.7,9.785h69.522l18.912,49.87H195.889l3.741,9.785h69.44l31,81.9h13.9L171.715,137.6a6.5,6.5,0,0,0-12.334,2.3,6.659,6.659,0,0,0,.411,2.3l15.417,40.743H105.77l3.7,9.785Z" transform="translate(615.065 129.9)" fill="url(#linear-gradient-5)"/>
    <path id="Path_305" data-name="Path 305" d="M234.873,489.941h13.9L104.956,110.14H91.06Z" transform="translate(596.925 153.168)" fill="url(#linear-gradient-6)"/>
    <path id="Path_306" data-name="Path 306" d="M326.174,174.251a15.909,15.909,0,0,0,7.154,3.454,16.447,16.447,0,0,0,7.071-1.275l34.206-11.388a12.951,12.951,0,0,1,2.8,17.432,25.284,25.284,0,0,1-12.539,7.483l-23.476,8.428a40.332,40.332,0,0,1-34.576-.206c-6.989-2.344-14.677-5.262-18.049-11.841s-.9-15.294-1.891-22.982a98.647,98.647,0,0,1-2.755-14.883c0-4.317,3.536-10.813,8.675-9.908,4.44.781,7.4,8.51,9.744,11.758a110.023,110.023,0,0,0,23.64,23.928Z" transform="translate(-183.798 144.107)" fill="#fff"/>
    <path id="Path_307" data-name="Path 307" d="M284.774,146.906a7.113,7.113,0,0,1,1.6-2.467,2.508,2.508,0,0,1,2.714-.576,2.8,2.8,0,0,1,1.316,2.672,1.4,1.4,0,0,0,.247,1.069c.247.247.7,0,1.069,0,3.865-.74,7.811-1.316,11.758-1.727a2.385,2.385,0,0,1,2.672,3.248,11.835,11.835,0,0,1-1.932,3.618c-2.014,3.289-2.755,7.606-5.961,9.744a10.443,10.443,0,0,1-6.5,1.357c-2.261,0-4.481-.534-6.743-.411a7.071,7.071,0,0,1-4.44-.493,3.823,3.823,0,0,1-1.521-3.371,12.869,12.869,0,0,1,2.1-5.674C282.43,151.675,283.622,149.29,284.774,146.906Z" transform="translate(-89.691 160.31)" fill="#fdb9a9"/>
    <path id="Path_308" data-name="Path 308" d="M308.566,207.34c13.074-2.96,10.525,15.582,13.978,22.489a36.218,36.218,0,0,0,8.223,9.292,16.774,16.774,0,0,1,5.879,10.566,3.826,3.826,0,0,1-.452,2.22,4.482,4.482,0,0,1-2.631,1.562,30.136,30.136,0,0,1-22.406-2.22,17.392,17.392,0,0,1-7.688-7.113,24.669,24.669,0,0,1-1.974-10.607C301.083,225.8,297.629,209.766,308.566,207.34Z" transform="translate(-208.865 357.366)" fill="#fdb9a9"/>
    <path id="Path_309" data-name="Path 309" d="M319.83,216.4s37.248,1.6,21.461,13.279-39.345-2.837-41.647-5.509-.411-7.236-.411-7.236Z" transform="translate(-208.535 386.541)" fill="#ce131c"/>
    <path id="Path_310" data-name="Path 310" d="M301.267,230.437c3.289,4.111,20.8,9.5,28.574,8.922s14.718-4.111,13.937-9.168S329.347,213.5,326.757,213.54s-4.6,6-9.785,7.236a13.773,13.773,0,0,1-12.622-4.522,3.453,3.453,0,0,0-4.111-1.11A16.445,16.445,0,0,0,301.267,230.437Z" transform="translate(-208.514 377.643)" fill="#fff"/>
    <path id="Path_311" data-name="Path 311" d="M319.5,209.132c13.074-3.042,10.525,15.541,13.978,22.407a36.386,36.386,0,0,0,8.223,9.333,16.692,16.692,0,0,1,5.879,10.525,4.11,4.11,0,0,1-.452,2.261,4.686,4.686,0,0,1-2.631,1.562A30.3,30.3,0,0,1,322.086,253a17.721,17.721,0,0,1-7.688-7.154,24.669,24.669,0,0,1-1.974-10.566C312.014,227.469,308.56,211.476,319.5,209.132Z" transform="translate(-264.732 362.892)" fill="#fdb9a9"/>
    <path id="Path_312" data-name="Path 312" d="M330.76,218.14s37.248,1.562,21.461,13.321-39.345-2.878-41.647-5.55-.411-7.236-.411-7.236Z" transform="translate(-264.402 391.955)" fill="#ce131c"/>
    <path id="Path_313" data-name="Path 313" d="M312.134,231.974c3.289,4.111,20.8,9.538,28.574,8.963s14.718-4.111,13.937-9.168-14.431-16.692-17.021-16.445-4.6,6-9.785,7.195a13.732,13.732,0,0,1-12.622-4.481,3.412,3.412,0,0,0-4.111-1.11A16.446,16.446,0,0,0,312.134,231.974Z" transform="translate(-264.318 383.178)" fill="#fff"/>
    <path id="Path_314" data-name="Path 314" d="M360.761,167.75,343.247,352.1,318,348.976c-9.99-44.978-7.524-179.54-7.524-179.54Z" transform="translate(-272.243 235.177)" fill="#473f47"/>
    <path id="Path_315" data-name="Path 315" d="M302.315,172.545l17.514,184.309,25.326-3.125c14.431-116.6,2.508-189.119,2.508-189.119Z" transform="translate(-231.31 225.408)" fill="#473f47"/>
    <path id="Path_316" data-name="Path 316" d="M393.309,202.694c.329-3.371,1.233-6.743,1.562-10.2a77.247,77.247,0,0,0-.37-20.885,79.1,79.1,0,0,0-6.619-21.3c-2.878-5.838-8.223-8.223-14.061-11.265a50.568,50.568,0,0,0-15.911-5.386,40,40,0,0,0-11.717.658c-11.923,2.261-27.587,8.223-35.727,17.8-6.126,7.03-6.825,17.144-7.03,26.477-.247,12.868,0,25.737.822,38.6,0,1.85.206,3.7.37,5.591a204.9,204.9,0,0,0,6.455,42.387,16.815,16.815,0,0,0,6.537,10.854c9.333,5.427,23.558,2.426,33.63,1.028,13.362-1.891,27.052-3.865,38.893-10.36a10.977,10.977,0,0,0,5.591-5.386,14.676,14.676,0,0,0-1.11-9c-4.111-13.156-.9-27.011-.9-40.455,0-2.426-.288-4.892-.288-7.359A8.738,8.738,0,0,1,393.309,202.694Z" transform="translate(-279.259 128.614)" fill="#fff"/>
    <path id="Path_317" data-name="Path 317" d="M349.7,200.082a31.449,31.449,0,0,1-10.319,4.111c-10.895,3.166-22.078,4.851-32.89,8.223a4.11,4.11,0,0,0-1.974.987,3.661,3.661,0,0,0-.576,2.3,28.777,28.777,0,0,0,1.4,9.333,6.206,6.206,0,0,0,2.425,3.741,7.154,7.154,0,0,0,4.893,0l40.743-8.634a34.414,34.414,0,0,1,8.922-1.069,41.936,41.936,0,0,1,10.4,2.59,99.327,99.327,0,0,0,19.2,4.111,150.833,150.833,0,0,0-2.837-23.147,30.457,30.457,0,0,0-2.549-6.5,31.444,31.444,0,0,0-4.6-5.591c-6.578-6.866-11.141-15.458-17.8-22.324-3.495-3.618-7.853-5.92-10.936-9.785-1.233-1.562-11.923-15.006-10.895-16.445-2.056,2.549-7.154,0-9,2.631-1.151,1.644,0,3.865,1.069,5.55a131.108,131.108,0,0,1,16.24,42.757C351.429,196.423,352.662,197.657,349.7,200.082Z" transform="translate(-277.588 155.03)" fill="url(#linear-gradient-7)"/>
    <path id="Path_318" data-name="Path 318" d="M297.71,117.624a22.571,22.571,0,0,0,7.729,41.113s23.352,8.8,10.237,29.108L250.8,229.163l41.113,64.876c20.31,13.115,29.108-10.237,29.108-10.237a22.53,22.53,0,1,1,16.733,26.312c-22.612-.452-21.625,22.037-21.625,22.037l41.113,64.876L525.146,290.134l-40.907-64.3c-20.31-13.074-29.108,10.237-29.108,10.237A22.571,22.571,0,1,1,438.4,209.8c22.612.452,21.584-22.036,21.584-22.036l-41.689-65.534-64.917,41.36s-22.489.987-22.036-21.625a22.859,22.859,0,0,0-2.878-17.555,22.612,22.612,0,0,0-30.752-6.784Z" transform="translate(-192.377 68.72)" fill="#ce131c"/>
    <path id="Path_319" data-name="Path 319" d="M317.673,173.8a49.344,49.344,0,0,0-4.111,9.25,41.73,41.73,0,0,0-.411,17.185,30.956,30.956,0,0,0,5.8,15.458c6.948,8.223,19.364,9,30.136,7.976a173.211,173.211,0,0,0,36.015-7.236,7.771,7.771,0,0,0,3-1.4,8.222,8.222,0,0,0,1.891-3.782,59.164,59.164,0,0,0,1.768-10.4c-12.334-3.536-25.983-.658-38.852-2.549a5.509,5.509,0,0,1-5.18-7.318c.617-7.236,5.1-13.567,7.195-20.556a32.644,32.644,0,0,0-.493-20.556,16.9,16.9,0,0,0-9.374-10.566c-5.139-1.686-7.113,2.344-9.95,6.126A216.593,216.593,0,0,0,317.673,173.8Z" transform="translate(-312.45 145.46)" fill="#fff"/>
    <path id="Path_320" data-name="Path 320" d="M318.877,153.42a3.454,3.454,0,0,1,1.686-.74,2.672,2.672,0,0,1,2.179,1.6,25.031,25.031,0,0,0,1.233,2.59,6.126,6.126,0,0,0,4.934,2.015,27.791,27.791,0,0,1,5.55,0,4.112,4.112,0,0,1,1.85.9,3.782,3.782,0,0,1,1.028,1.809,8.633,8.633,0,0,1-2.22,7.894,17.843,17.843,0,0,1-7.195,4.44A15.294,15.294,0,0,1,319.082,175a18.133,18.133,0,0,1-4.646-2.1l-6-3.33a4.115,4.115,0,0,1-1.316-.987c-1.316-1.645.493-6.578,1.686-8.223A42.018,42.018,0,0,1,318.877,153.42Z" transform="translate(-234.429 188.29)" fill="#fdb9a9"/>
    <path id="Path_321" data-name="Path 321" d="M345.041,150.621a99.845,99.845,0,0,0-.658-10.566c-.37-3.453-.822-6.167-1.4-9.209A6.249,6.249,0,0,0,340.6,126.2a29.15,29.15,0,0,0-15.746-4.111,15.13,15.13,0,0,0-11.47,4.111,14.965,14.965,0,0,0-3.165,8.223,94.143,94.143,0,0,0,2.3,23.147,97.824,97.824,0,0,1,.946,18.007,21.214,21.214,0,0,0,9.744,3.453,15.865,15.865,0,0,0,4.769-.781,3.659,3.659,0,0,0,2.138-1.4,3.741,3.741,0,0,0,0-2.015,14.658,14.658,0,0,1,0-1.891h0a60.4,60.4,0,0,1,.206-10.566,1.069,1.069,0,0,1,.329-.822,1.027,1.027,0,0,1,.7,0h.987a24.994,24.994,0,0,0,5.262,0,8.716,8.716,0,0,0,5.509-2.713A11.43,11.43,0,0,0,345.041,150.621Z" transform="translate(-256.564 92.994)" fill="#fdb9a9"/>
    <path id="Path_322" data-name="Path 322" d="M356.885,139.077c1.233,0,2.343.658,3.412,0a15.5,15.5,0,0,0,2.919-3.207,13.608,13.608,0,0,0,2.714-9.086,7.974,7.974,0,0,0-1.4-4.111,8.673,8.673,0,0,0-3.412-2.508,15.993,15.993,0,0,0-8.223-1.6,19.487,19.487,0,0,0-10.936,5.221,6,6,0,0,1-2.261,1.48,5.794,5.794,0,0,1-2.384,0,20.228,20.228,0,0,0-14.431,4.44c-2.3,2.014-4.111,4.6-6.5,6.372s-4.728,2.426-5.961,4.687a6.208,6.208,0,0,0,.7,6.578,10.278,10.278,0,0,0,5.961,3.453,5.386,5.386,0,0,0,3.207,6.989,8.428,8.428,0,0,1,2.714.9c.576.452.822,1.151,1.4,1.6,1.357,1.11,3.125,1.48,3.7,3.371a9.542,9.542,0,0,1,.205,2.426,5.55,5.55,0,0,0,1.4,3.248c.535.576,1.48,2.015,2.261,2.179s1.48-.781,1.727-1.6a15.993,15.993,0,0,0-.7-10.525,11.265,11.265,0,0,1-1.727-5.345c0-1.891,2.713-3.371,4.111-2.261s1.48,3.782,2.96,3.248a11.717,11.717,0,0,1,5.674-14.225,27.384,27.384,0,0,1,8.551-1.192,21.1,21.1,0,0,1,4.111-.452Z" transform="translate(-275.726 82.007)" fill="#473f47"/>
    <path id="Path_323" data-name="Path 323" d="M325.314,134.356a62.2,62.2,0,0,1-11.923-3.536,14.184,14.184,0,0,0,9.744,15.006h0a60.4,60.4,0,0,1,0-10.566,1.234,1.234,0,0,1,.329-.822,1.028,1.028,0,0,1,.7,0h.946Z" transform="translate(-249.541 120.277)" fill="#de9f93"/>
    <path id="Path_324" data-name="Path 324" d="M277.377,141.667a6.906,6.906,0,0,0-.863,6.208,20.227,20.227,0,0,0,3.083,5.715l6.455,9.538c1.686,2.467,4.111,5.262,6.948,5.016,7.071-.493,10.2-18.83,7.565-24.257C297.523,137.1,282.023,135.87,277.377,141.667Z" transform="translate(-72.88 142.526)" fill="#fdb9a9"/>
    <path id="Path_325" data-name="Path 325" d="M241.7,230.942V429.97H440.686V353.007s-11.224-19.487-30.053-6.989a22.571,22.571,0,1,1,0-31.164s19.94,14.965,30.053-6.989V230.942H363.764c-21.954-10.114-6.989-30.054-6.989-30.054a22.571,22.571,0,1,0-31.164,0c12.334,18.83-6.989,30.054-6.989,30.054Z" transform="translate(-70.504 217.25)" fill="#ce131c"/>
    <path id="Path_326" data-name="Path 326" d="M241.7,230.942V429.97H440.686V353.007s-11.224-19.487-30.053-6.989a22.571,22.571,0,1,1,0-31.164s19.94,14.965,30.053-6.989V230.942H363.764c-21.954-10.114-6.989-30.054-6.989-30.054a22.571,22.571,0,1,0-31.164,0c12.334,18.83-6.989,30.054-6.989,30.054Z" transform="translate(-70.504 217.25)" fill="url(#linear-gradient-8)"/>
    <path id="Path_327" data-name="Path 327" d="M323.3,229.843a22.612,22.612,0,0,0,38.934,15.582c18.83-12.334,30.054,6.989,30.054,6.989v76.963H193.3V130.35H392.287v76.922c-10.114,21.954-30.054,6.989-30.054,6.989A22.612,22.612,0,0,0,323.3,229.843Z" transform="translate(176.883 118.815)" fill="#ce131c"/>
    <path id="Path_328" data-name="Path 328" d="M250.154,208.814a22.571,22.571,0,1,1-31.164,0s14.965-19.94-6.989-30.053h45.183S237.655,189.984,250.154,208.814Z" transform="translate(235.104 269.432)" fill="#ce131c"/>
    <path id="Path_329" data-name="Path 329" d="M392.286,130.35v76.922c-10.114,21.954-30.053,6.989-30.053,6.989a22.571,22.571,0,1,0,0,31.164c18.83-12.334,30.053,6.989,30.053,6.989v76.963H315.405s-19.488,11.224-6.989,30.054a22.571,22.571,0,1,1-31.164,0s14.965-19.94-6.989-30.054H193.3V130.35Z" transform="translate(176.883 118.815)" fill="url(#linear-gradient-9)"/>
    <path id="Path_330" data-name="Path 330" d="M461.241,178.76V377.788H262.254V300.824s-11.224-19.487-30.054-6.989a22.571,22.571,0,1,1,0-31.164s19.94,14.965,30.053-6.989V178.76h76.881c21.954,10.114,6.989,30.054,6.989,30.054a22.571,22.571,0,1,0,31.164,0c-12.334-18.83,6.989-30.054,6.989-30.054Z" transform="translate(107.928 269.432)" fill="#ce131c"/>
    <path id="Path_331" data-name="Path 331" d="M343.987,429.97V353.048c-10.114-21.954-30.054-6.989-30.054-6.989a22.571,22.571,0,1,1,0-31.164c18.83,12.334,30.054-6.989,30.054-6.989V230.942H267.064s-19.488-11.224-6.989-30.054a22.571,22.571,0,1,0-31.164,0s14.965,19.94-6.989,30.054H145V429.97Z" transform="translate(423.758 217.25)" fill="#ce131c"/>
    <path id="Path_332" data-name="Path 332" d="M343.987,429.97V353.048c-10.114-21.954-30.054-6.989-30.054-6.989a22.571,22.571,0,1,1,0-31.164c18.83,12.334,30.054-6.989,30.054-6.989V230.942H267.064s-19.488-11.224-6.989-30.054a22.571,22.571,0,1,0-31.164,0s14.965,19.94-6.989,30.054H145V429.97Z" transform="translate(423.758 217.25)" fill="url(#linear-gradient-10)"/>
    <path id="Path_333" data-name="Path 333" d="M145.164,229.884A22.612,22.612,0,0,0,184.1,245.466s19.94-14.965,30.054,6.989v76.922h76.922c21.954-10.114,6.989-30.053,6.989-30.053a22.571,22.571,0,1,1,31.164,0c-12.334,18.83,6.989,30.053,6.989,30.053h76.758V130.35H336.792C314.838,140.464,329.8,160.4,329.8,160.4a22.571,22.571,0,1,1-31.164,0c12.334-18.83-6.989-30.054-6.989-30.054H213.988v76.963S202.764,226.8,183.934,214.3A22.612,22.612,0,0,0,145,229.884Z" transform="translate(354.77 118.815)" fill="#ce131c"/>
  </g>
</svg>
