<svg xmlns="http://www.w3.org/2000/svg" xmlns:xlink="http://www.w3.org/1999/xlink" width="371.774" height="623.713" viewBox="0 0 371.774 623.713">
  <defs>
    <linearGradient id="linear-gradient" x1="-0.774" y1="-2.126" x2="2.275" y2="5.095" gradientUnits="objectBoundingBox">
      <stop offset="0"/>
      <stop offset="0.01"/>
      <stop offset="0.118" stop-opacity="0.69"/>
      <stop offset="0.422" stop-opacity="0.322"/>
      <stop offset="1" stop-opacity="0"/>
    </linearGradient>
  </defs>
  <g id="Team_work_Monochromatic" data-name="Team work_Monochromatic" transform="matrix(0.999, -0.035, 0.035, 0.999, -916.322, -314.958)">
    <path id="Path_254" data-name="Path 254" d="M361.76,190.468a23.121,23.121,0,0,1-10.4,5.019,23.9,23.9,0,0,1-10.277-1.852l-49.714-16.551a18.822,18.822,0,0,0-4.063,25.335,36.745,36.745,0,0,0,18.224,10.875l34.119,12.249a58.616,58.616,0,0,0,50.251-.3c10.158-3.406,21.332-7.648,26.231-17.209s1.314-22.228,2.749-33.4a143.4,143.4,0,0,0,4-21.63c0-6.274-5.139-15.715-12.608-14.4-6.453,1.135-10.755,12.369-14.161,17.089a159.906,159.906,0,0,1-34.358,34.776Z" transform="translate(699.131 338.476)" fill="#fff"/>
    <path id="Path_255" data-name="Path 255" d="M310.379,148.365a10.339,10.339,0,0,0-2.33-3.585,3.645,3.645,0,0,0-3.944-.837,4.063,4.063,0,0,0-1.912,3.884,2.032,2.032,0,0,1-.358,1.553c-.359.358-1.016,0-1.554,0-5.617-1.076-11.353-1.912-17.089-2.51a3.466,3.466,0,0,0-3.884,4.72,17.2,17.2,0,0,0,2.809,5.258c2.928,4.78,4,11.054,8.664,14.161a15.177,15.177,0,0,0,9.441,1.972c3.286,0,6.513-.777,9.8-.6a10.277,10.277,0,0,0,6.453-.717,5.556,5.556,0,0,0,2.211-4.9,18.7,18.7,0,0,0-3.048-8.246C313.785,155.3,312.052,151.831,310.379,148.365Z" transform="translate(673.909 364.387)" fill="#fdb9a9"/>
    <path id="Path_256" data-name="Path 256" d="M341.493,207.484c-19-4.3-15.3,22.646-20.316,32.684a52.644,52.644,0,0,1-11.95,13.5,24.379,24.379,0,0,0-8.544,15.356,5.559,5.559,0,0,0,.657,3.227,6.513,6.513,0,0,0,3.824,2.271,43.8,43.8,0,0,0,32.565-3.227A25.274,25.274,0,0,0,348.9,260.962a35.853,35.853,0,0,0,2.868-15.416C352.368,234.313,357.388,211.009,341.493,207.484Z" transform="translate(781.42 679.494)" fill="#fdb9a9"/>
    <path id="Path_257" data-name="Path 257" d="M335.36,216.4s-54.135,2.33-31.191,19.3,57.183-4.123,60.529-8.007.6-10.516.6-10.516Z" transform="translate(770.704 726.148)" fill="#ce131c"/>
    <path id="Path_258" data-name="Path 258" d="M360.7,238.1c-4.78,5.975-30.235,13.8-41.528,12.966s-21.391-5.975-20.256-13.325,20.973-24.259,24.737-24.2,6.692,8.724,14.221,10.516a20.017,20.017,0,0,0,18.344-6.573,5.019,5.019,0,0,1,5.975-1.613A23.9,23.9,0,0,1,360.7,238.1Z" transform="translate(772.315 711.919)" fill="#f5f5f5"/>
    <path id="Path_259" data-name="Path 259" d="M352.419,209.284c-19-4.422-15.3,22.586-20.316,32.565a52.884,52.884,0,0,1-11.95,13.564,24.261,24.261,0,0,0-8.545,15.3,5.974,5.974,0,0,0,.657,3.286,6.811,6.811,0,0,0,3.824,2.271,44.037,44.037,0,0,0,32.565-3.227,25.754,25.754,0,0,0,11.174-10.4,35.852,35.852,0,0,0,2.868-15.356C363.294,235.933,368.313,212.69,352.419,209.284Z" transform="translate(835.803 688.331)" fill="#fdb9a9"/>
    <path id="Path_260" data-name="Path 260" d="M346.29,218.14s-54.135,2.271-31.191,19.36,57.183-4.183,60.529-8.067.6-10.516.6-10.516Z" transform="translate(825.083 734.805)" fill="#ce131c"/>
    <path id="Path_261" data-name="Path 261" d="M371.627,239.524c-4.78,5.975-30.235,13.862-41.528,13.026s-21.391-5.975-20.256-13.325,20.973-24.259,24.737-23.9,6.692,8.724,14.221,10.457a19.957,19.957,0,0,0,18.344-6.513,4.96,4.96,0,0,1,5.975-1.613A23.9,23.9,0,0,1,371.627,239.524Z" transform="translate(826.694 720.77)" fill="#f5f5f5"/>
    <path id="Path_262" data-name="Path 262" d="M310.21,167.75l25.454,267.928,36.688-4.541c14.52-65.369,10.935-260.937,10.935-260.937Z" transform="translate(828.956 484.104)" fill="#473f47"/>
    <path id="Path_263" data-name="Path 263" d="M374.946,176.142,349.492,444.011l-36.807-4.541C291.712,270.013,309.04,164.61,309.04,164.61Z" transform="translate(789.674 468.482)" fill="#473f47"/>
    <path id="Path_264" data-name="Path 264" d="M307.26,234.065c-.478-4.9-1.792-9.8-2.271-14.819a112.28,112.28,0,0,1,.538-30.354,114.962,114.962,0,0,1,9.62-30.952c4.183-8.485,11.95-11.95,20.435-16.372a73.5,73.5,0,0,1,23.124-7.827,58.137,58.137,0,0,1,17.029.956c17.328,3.286,40.094,11.95,51.925,25.873,8.9,10.218,9.919,24.917,10.218,38.48.359,18.7,0,37.4-1.2,56.107,0,2.689-.3,5.378-.538,8.126a297.8,297.8,0,0,1-9.381,61.6,24.438,24.438,0,0,1-9.5,15.775c-13.564,7.887-34.238,3.525-48.877,1.494-19.419-2.749-39.317-5.617-56.525-15.057a15.954,15.954,0,0,1-8.126-7.828,21.33,21.33,0,0,1,1.613-13.086c5.975-19.121,1.315-39.257,1.315-58.8,0-3.525.418-7.111.418-10.7A12.7,12.7,0,0,0,307.26,234.065Z" transform="translate(794.8 313.702)" fill="#f5f5f5"/>
    <path id="Path_265" data-name="Path 265" d="M365.3,226.42a45.709,45.709,0,0,0,15,5.975c15.834,4.6,32.087,7.051,47.8,11.95a5.973,5.973,0,0,1,2.868,1.434,5.319,5.319,0,0,1,.836,3.346,41.823,41.823,0,0,1-2.031,13.564,9.022,9.022,0,0,1-3.525,5.437,10.4,10.4,0,0,1-7.111,0l-59.214-12.548a50.012,50.012,0,0,0-12.966-1.553,60.945,60.945,0,0,0-15.117,3.764,144.365,144.365,0,0,1-27.9,5.975,219.2,219.2,0,0,1,4.123-33.641,44.269,44.269,0,0,1,3.7-9.441,45.7,45.7,0,0,1,6.692-8.126c9.56-9.978,16.193-22.467,25.872-32.445,5.079-5.258,11.413-8.6,15.894-14.221,1.792-2.271,17.328-21.81,15.834-23.9,2.988,3.7,10.4,0,13.086,3.824,1.673,2.39,0,5.617-1.554,8.067a190.547,190.547,0,0,0-23.6,62.142C362.786,221.1,360.993,222.894,365.3,226.42Z" transform="translate(797.711 355.943)" fill="url(#linear-gradient)"/>
    <path id="Path_266" data-name="Path 266" d="M171.086,2.539a16.979,16.979,0,0,1-5.814,30.927s-17.566,6.618-7.7,21.9l48.8,31.081-30.927,48.8c-15.278,9.866-21.9-7.7-21.9-7.7a16.948,16.948,0,1,0-12.587,19.793c17.01-.34,16.267,16.577,16.267,16.577l-30.927,48.8L0,132.307,30.772,83.938c15.278-9.835,21.9,7.7,21.9,7.7A16.979,16.979,0,1,0,65.255,71.876C48.246,72.216,49.019,55.3,49.019,55.3L80.379,6l48.833,31.112s16.917.742,16.577-16.267a17.2,17.2,0,0,1,2.165-13.206,17.01,17.01,0,0,1,23.133-5.1Z" transform="matrix(0.574, -0.819, 0.819, 0.574, 897.259, 561.885)" fill="#ce131c"/>
    <path id="Path_267" data-name="Path 267" d="M420.123,189.62a71.71,71.71,0,0,1,5.975,13.444,60.647,60.647,0,0,1,.6,24.976,44.993,44.993,0,0,1-8.425,22.467c-10.1,11.95-28.143,13.086-43.8,11.592a251.74,251.74,0,0,1-52.343-10.516,11.292,11.292,0,0,1-4.362-2.032,11.95,11.95,0,0,1-2.749-5.5,85.986,85.986,0,0,1-2.569-15.117c17.926-5.139,37.763-.956,56.466-3.7a8.007,8.007,0,0,0,7.529-10.636c-.9-10.516-7.409-19.718-10.457-29.876a47.444,47.444,0,0,1,.717-29.876,24.557,24.557,0,0,1,13.623-15.356c7.469-2.45,10.337,3.406,14.46,8.9a314.776,314.776,0,0,1,25.335,41.229Z" transform="translate(840.1 340.639)" fill="#f5f5f5"/>
    <path id="Path_268" data-name="Path 268" d="M333.792,153.755a5.02,5.02,0,0,0-2.45-1.075,3.884,3.884,0,0,0-3.167,2.33,36.394,36.394,0,0,1-1.792,3.764,8.9,8.9,0,0,1-7.171,2.928,40.4,40.4,0,0,0-8.066,0,5.975,5.975,0,0,0-2.689,1.315,5.5,5.5,0,0,0-1.494,2.629,12.548,12.548,0,0,0,3.227,11.472,25.932,25.932,0,0,0,10.457,6.453,22.228,22.228,0,0,0,12.847,1.553,26.351,26.351,0,0,0,6.752-3.047l8.724-4.84a5.976,5.976,0,0,0,1.912-1.434c1.912-2.39-.717-9.56-2.45-11.95A61.071,61.071,0,0,0,333.792,153.755Z" transform="translate(811.289 409.128)" fill="#fdb9a9"/>
    <path id="Path_269" data-name="Path 269" d="M310.371,163.573a145.1,145.1,0,0,1,.956-15.356c.538-5.019,1.2-8.963,2.031-13.384a9.083,9.083,0,0,1,3.465-6.752,42.367,42.367,0,0,1,22.885-5.975,21.989,21.989,0,0,1,16.671,5.975,21.751,21.751,0,0,1,4.6,11.95,136.826,136.826,0,0,1-3.346,33.64,142.148,142.148,0,0,0-1.375,26.171,30.833,30.833,0,0,1-14.161,5.019,23.061,23.061,0,0,1-6.932-1.135,5.318,5.318,0,0,1-3.107-2.032,5.437,5.437,0,0,1,0-2.928,21.323,21.323,0,0,0,0-2.749h0a87.787,87.787,0,0,0-.3-15.356,1.553,1.553,0,0,0-.478-1.2,1.493,1.493,0,0,0-1.016,0h-1.434a36.319,36.319,0,0,1-7.648,0,12.668,12.668,0,0,1-8.007-3.944A16.611,16.611,0,0,1,310.371,163.573Z" transform="translate(828.855 256.742)" fill="#fdb9a9"/>
    <path id="Path_270" data-name="Path 270" d="M322.981,148.4c-1.792,0-3.406.956-4.959,0a22.527,22.527,0,0,1-4.242-4.661,19.777,19.777,0,0,1-3.944-13.205,11.591,11.591,0,0,1,2.031-5.975,12.607,12.607,0,0,1,4.959-3.645,23.245,23.245,0,0,1,11.95-2.33,28.322,28.322,0,0,1,15.894,7.589,8.725,8.725,0,0,0,3.287,2.151,8.422,8.422,0,0,0,3.465,0,29.4,29.4,0,0,1,20.973,6.453c3.346,2.928,5.975,6.692,9.44,9.261s6.872,3.525,8.664,6.812a9.022,9.022,0,0,1-1.016,9.56,14.937,14.937,0,0,1-8.664,5.019,7.827,7.827,0,0,1-4.66,10.158,12.25,12.25,0,0,0-3.944,1.315c-.837.657-1.2,1.673-2.032,2.33-1.972,1.613-4.541,2.151-5.378,4.9a13.872,13.872,0,0,0-.3,3.525,8.065,8.065,0,0,1-2.032,4.72c-.777.837-2.151,2.928-3.286,3.167s-2.151-1.135-2.51-2.33a23.243,23.243,0,0,1,1.016-15.3,16.373,16.373,0,0,0,2.51-7.768c0-2.749-3.944-4.9-5.975-3.286s-2.151,5.5-4.3,4.72a17.03,17.03,0,0,0-8.246-20.674,39.8,39.8,0,0,0-12.428-1.733,30.66,30.66,0,0,0-5.975-.657Z" transform="translate(826.881 239.174)" fill="#473f47"/>
    <path id="Path_271" data-name="Path 271" d="M313.31,135.959a90.4,90.4,0,0,0,17.328-5.139,20.615,20.615,0,0,1-14.161,21.809h0a87.792,87.792,0,0,0,0-15.356,1.793,1.793,0,0,0-.478-1.195,1.493,1.493,0,0,0-1.016,0h-1.374Z" transform="translate(844.379 300.37)" fill="#de9f93"/>
    <path id="Path_272" data-name="Path 272" d="M311.18,143.343a10.038,10.038,0,0,1,1.255,9.022,29.4,29.4,0,0,1-4.481,8.306l-9.381,13.863c-2.45,3.585-5.975,7.648-10.1,7.29-10.277-.717-14.819-27.366-10.994-35.254C281.9,136.71,304.428,134.918,311.18,143.343Z" transform="translate(659.426 335.948)" fill="#fdb9a9"/>
  </g>
</svg>
